<svg width="127" height="116" viewBox="0 0 127 116" fill="none" xmlns="http://www.w3.org/2000/svg">
<path d="M45.72 67.6667L34.8721 57.8067M81.1742 72.5L68.1567 60.61M12.0121 104.883C12.0121 104.883 64.2408 87.9667 79.375 74.1433C81.5883 72.1249 83.3447 69.7281 84.5438 67.0897C85.743 64.4513 86.3614 61.623 86.3639 58.7663C86.3663 55.9095 85.7527 53.0804 84.5581 50.4402C83.3635 47.8001 81.6113 45.4008 79.4015 43.3792C77.1916 41.3576 74.5675 39.7533 71.6789 38.658C68.7903 37.5627 65.6938 36.9979 62.5662 36.9956C59.4386 36.9934 56.3411 37.5538 53.4507 38.645C50.5602 39.7361 47.9333 41.3366 45.72 43.355C30.5329 57.2267 12.0121 104.883 12.0121 104.883Z" stroke="black" stroke-width="2" stroke-linecap="round" stroke-linejoin="round"/>
<path d="M116.417 43.5C116.417 43.5 109.379 33.8333 97.8958 33.8333C89.2175 33.8333 79.375 43.5 79.375 43.5C79.375 43.5 86.4129 53.1667 97.8958 53.1667C109.379 53.1667 116.417 43.5 116.417 43.5Z" stroke="black" stroke-width="2" stroke-linecap="round" stroke-linejoin="round"/>
<path d="M79.375 9.66667C79.375 9.66667 68.7917 16.095 68.7917 26.5833C68.7917 37.0717 79.375 43.5 79.375 43.5C79.375 43.5 89.9583 34.6067 89.9583 26.5833C89.9583 16.095 79.375 9.66667 79.375 9.66667Z" stroke="black" stroke-width="2" stroke-linecap="round" stroke-linejoin="round"/>
</svg>
