<svg width="24" height="24" viewBox="0 0 24 24" fill="none" xmlns="http://www.w3.org/2000/svg">
<g clip-path="url(#clip0_117_49)">
<path d="M8 24C7.45 24 6.97933 23.8043 6.588 23.413C6.19667 23.0217 6.00067 22.5507 6 22C6 21.45 6.196 20.9793 6.588 20.588C6.98 20.1967 7.45067 20.0007 8 20C8.55 20 9.021 20.196 9.413 20.588C9.805 20.98 10.0007 21.4507 10 22C10 22.55 9.80433 23.021 9.413 23.413C9.02167 23.805 8.55067 24.0007 8 24ZM18 24C17.45 24 16.9793 23.8043 16.588 23.413C16.1967 23.0217 16.0007 22.5507 16 22C16 21.45 16.196 20.9793 16.588 20.588C16.98 20.1967 17.4507 20.0007 18 20C18.55 20 19.021 20.196 19.413 20.588C19.805 20.98 20.0007 21.4507 20 22C20 22.55 19.8043 23.021 19.413 23.413C19.0217 23.805 18.5507 24.0007 18 24ZM6.2 6H20.95C21.3333 6 21.625 6.171 21.825 6.513C22.025 6.855 22.0333 7.20067 21.85 7.55L18.3 13.95C18.1167 14.2833 17.871 14.5417 17.563 14.725C17.255 14.9083 16.9173 15 16.55 15H9.1L8 17H20V19H8C7.25 19 6.68333 18.671 6.3 18.013C5.91667 17.355 5.9 16.7007 6.25 16.05L7.6 13.6L4 6H2V4H5.25L6.2 6Z" fill="#29335C"/>
</g>
<defs>
<clipPath id="clip0_117_49">
<rect width="24" height="24" fill="white"/>
</clipPath>
</defs>
</svg>
