<svg width="37" height="24" viewBox="0 0 37 24" fill="none" xmlns="http://www.w3.org/2000/svg">
<path d="M12.032 24H2.272C0.864 24 0 23.328 0 21.76V15.328H6.72V17.696C6.72 17.952 6.848 18.144 7.136 18.144C7.392 18.144 7.552 17.952 7.552 17.696V14.624H2.208C0.672 14.624 0 13.76 0 12.352V2.976C0 1.568 0.672 0.703999 2.208 0.703999H12.064C13.6 0.703999 14.272 1.568 14.272 2.976V7.936H7.552V7.04C7.552 6.784 7.424 6.592 7.136 6.592C6.848 6.592 6.72 6.784 6.72 7.04V8.768H12.064C13.6 8.768 14.272 9.632 14.272 11.04V21.728C14.272 23.136 13.6 24 12.032 24Z" fill="#296DC1"/>
<path d="M22.4583 6.912C22.4263 6.688 22.2983 6.624 22.1063 6.592H21.6263V24H14.9062V0.703999L34.3943 0.671999C35.9303 0.671999 36.6023 1.536 36.6023 2.944V24H32.0903C30.5543 24 29.8823 23.136 29.8823 21.728V7.008C29.8823 6.72 29.7863 6.592 29.5303 6.56H29.1783V24H24.6663C23.1302 24 22.4583 23.136 22.4583 21.728V6.912Z" fill="white"/>
</svg>
