<svg width="156" height="24" viewBox="0 0 156 24" fill="none" xmlns="http://www.w3.org/2000/svg">
<path d="M12.032 24H2.272C0.864 24 0 23.328 0 21.76V15.328H6.72V17.696C6.72 17.952 6.848 18.144 7.136 18.144C7.392 18.144 7.552 17.952 7.552 17.696V14.624H2.208C0.672 14.624 0 13.76 0 12.352V2.976C0 1.568 0.672 0.703999 2.208 0.703999H12.064C13.6 0.703999 14.272 1.568 14.272 2.976V7.936H7.552V7.04C7.552 6.784 7.424 6.592 7.136 6.592C6.848 6.592 6.72 6.784 6.72 7.04V8.768H12.064C13.6 8.768 14.272 9.632 14.272 11.04V21.728C14.272 23.136 13.6 24 12.032 24ZM21.6263 14.592V21.728C21.6263 23.136 20.9543 24 19.4183 24H14.9062V0.703999H19.4183C20.9543 0.703999 21.6263 1.568 21.6263 2.976V11.136C21.6263 11.392 21.7543 11.456 22.0423 11.456C22.3303 11.456 22.4583 11.392 22.4583 11.136V2.976C22.4583 1.568 23.1302 0.703999 24.6663 0.703999H29.1783V24H24.6663C23.1302 24 22.4583 23.136 22.4583 21.728V14.592C22.4583 14.272 22.3303 14.144 22.0423 14.144C21.7543 14.144 21.6263 14.24 21.6263 14.592ZM36.5325 17.44H29.8125V2.976C29.8125 1.568 30.4845 0.703999 32.0205 0.703999H41.8765C43.4125 0.703999 44.0845 1.568 44.0845 2.976V17.44H37.3645V15.488H36.5325V17.44ZM27.7645 18.144H44.0845V24H27.7645V18.144ZM36.5325 7.04V11.904H37.3645V7.04C37.3645 6.848 37.2365 6.592 36.9485 6.592C36.6605 6.592 36.5325 6.848 36.5325 7.04ZM58.9908 11.04V21.728C58.9908 23.136 58.3188 24 56.7828 24H46.9268C45.3908 24 44.7188 23.136 44.7188 21.728V15.328H51.4388V17.696C51.4388 17.888 51.5668 18.144 51.8548 18.144C52.1428 18.144 52.2708 17.888 52.2708 17.696V14.624H46.9268C45.3908 14.624 44.7188 13.76 44.7188 12.352V2.976C44.7188 1.568 45.3908 0.703999 46.9268 0.703999H56.7828C58.3188 0.703999 58.9908 1.568 58.9908 2.976V7.936H52.2708V7.04C52.2708 6.848 52.1428 6.592 51.8548 6.592C51.5668 6.592 51.4388 6.848 51.4388 7.04V8.768H56.7828C58.3188 8.768 58.9908 9.632 58.9908 11.04ZM67.177 14.336H73.897V21.728C73.897 23.136 73.225 24 71.689 24H61.833C60.297 24 59.625 23.136 59.625 21.728V0.703999H66.345V6.592H73.897V13.152H66.345V17.664C66.345 18.016 66.473 18.144 66.793 18.144H67.177V14.336ZM81.2513 17.44H74.5312V2.976C74.5312 1.568 75.2033 0.703999 76.7393 0.703999H86.5953C88.1313 0.703999 88.8033 1.568 88.8033 2.976V17.44H82.0833V15.488H81.2513V17.44ZM72.4832 18.144H88.8033V24H72.4832V18.144ZM81.2513 7.04V11.904H82.0833V7.04C82.0833 6.848 81.9553 6.592 81.6673 6.592C81.3793 6.592 81.2513 6.848 81.2513 7.04ZM96.9895 6.912C96.9575 6.688 96.8295 6.624 96.6375 6.592H96.1575V24H89.4375V0.703999L108.926 0.671999C110.462 0.671999 111.134 1.536 111.134 2.944V24H106.622C105.086 24 104.414 23.136 104.414 21.728V7.008C104.414 6.72 104.318 6.592 104.062 6.56H103.71V24H99.1975C97.6615 24 96.9895 23.136 96.9895 21.728V6.912ZM118.501 17.44H111.781V2.976C111.781 1.568 112.453 0.703999 113.989 0.703999H123.845C125.381 0.703999 126.053 1.568 126.053 2.976V17.44H119.333V15.488H118.501V17.44ZM109.733 18.144H126.053V24H109.733V18.144ZM118.501 7.04V11.904H119.333V7.04C119.333 6.848 119.205 6.592 118.917 6.592C118.629 6.592 118.501 6.848 118.501 7.04ZM134.24 14.592C134.24 14.24 134.112 14.144 133.792 14.144H133.408V24H126.688V0.703999H138.752C140.192 0.703999 140.96 1.568 140.96 2.784V10.08C140.96 11.488 140.288 12.352 138.752 12.352H138.72V12.8H138.752C140.288 12.8 140.96 13.664 140.96 15.072V24H136.448C134.911 24 134.24 23.136 134.24 21.728V14.592ZM134.24 11.136V6.592H133.408V11.456H133.792C134.048 11.456 134.24 11.392 134.24 11.136ZM149.146 14.336H155.866V21.728C155.866 23.136 155.194 24 153.658 24H143.802C142.266 24 141.594 23.136 141.594 21.728V0.703999H148.314V6.592H155.866V13.152H148.314V17.664C148.314 18.016 148.442 18.144 148.762 18.144H149.146V14.336Z" fill="white"/>
</svg>
